<svg width="123" height="25" viewBox="0 0 123 25" fill="none" xmlns="http://www.w3.org/2000/svg">
<path d="M10.6321 2.18182V17.3949C10.6214 19.4936 9.68395 20.6016 7.9794 20.6016C6.37074 20.6016 5.3267 19.6001 5.29474 17.8636H0.703125C0.681818 22.2209 3.79261 24.2983 7.74503 24.2983C12.1662 24.2983 15.1811 21.6243 15.1918 17.3949V2.18182H10.6321ZM24.1866 24.3089C26.605 24.3089 28.171 23.2543 28.97 21.7308H29.0979V24H33.4018V12.9631C33.4018 9.06392 30.0993 7.4233 26.4558 7.4233C22.5354 7.4233 19.9572 9.29829 19.3287 12.2812L23.5261 12.6222C23.8351 11.5355 24.8045 10.7365 26.4345 10.7365C27.9793 10.7365 28.8635 11.5142 28.8635 12.8565V12.9205C28.8635 13.9751 27.7449 14.1136 24.9004 14.3906C21.6618 14.6889 18.7534 15.7756 18.7534 19.4297C18.7534 22.6683 21.0652 24.3089 24.1866 24.3089ZM25.4864 21.1768C24.0908 21.1768 23.0893 20.527 23.0893 19.2805C23.0893 18.0021 24.144 17.3736 25.742 17.1499C26.7328 17.0114 28.3521 16.777 28.8955 16.4148V18.1513C28.8955 19.8665 27.4786 21.1768 25.4864 21.1768ZM37.5228 24H42.0612V14.7422C42.0612 12.7287 43.5313 11.3438 45.5342 11.3438C46.1627 11.3438 47.0256 11.4503 47.4518 11.5888V7.56179C47.0469 7.46591 46.4823 7.40199 46.0242 7.40199C44.1918 7.40199 42.6897 8.46733 42.0931 10.4915H41.9227V7.63636H37.5228V24ZM66.1519 7.63636H61.3472L57.9594 19.3445H57.789L54.3906 7.63636H49.5965L55.3174 24H60.431L66.1519 7.63636ZM69.0744 24H73.6127V7.63636H69.0744V24ZM71.3542 5.52699C72.7072 5.52699 73.8151 4.49361 73.8151 3.22585C73.8151 1.96875 72.7072 0.935368 71.3542 0.935368C70.0119 0.935368 68.9039 1.96875 68.9039 3.22585C68.9039 4.49361 70.0119 5.52699 71.3542 5.52699ZM91.4632 12.3026C91.0584 9.28764 88.6294 7.4233 84.4959 7.4233C80.3091 7.4233 77.5499 9.36222 77.5605 12.5156C77.5499 14.9659 79.0946 16.5533 82.2907 17.1925L85.1245 17.7571C86.552 18.0447 87.2019 18.5668 87.2232 19.3871C87.2019 20.3565 86.1472 21.049 84.5598 21.049C82.9405 21.049 81.8645 20.3565 81.5875 19.0249L77.1238 19.2592C77.5499 22.3913 80.2132 24.3196 84.5492 24.3196C88.7892 24.3196 91.8255 22.157 91.8361 18.929C91.8255 16.5639 90.2807 15.147 87.106 14.4972L84.1444 13.9006C82.6209 13.5703 82.0563 13.0483 82.0669 12.2599C82.0563 11.2798 83.1642 10.6406 84.5705 10.6406C86.1472 10.6406 87.0847 11.5036 87.3084 12.5582L91.4632 12.3026Z" fill="#3C4043"/>
<path d="M108.856 2.18182V15.9567C108.856 18.4496 107.109 20.25 104.424 20.25C101.75 20.25 99.992 18.4496 99.992 15.9567V2.18182H95.3791V16.3509C95.3791 21.1236 98.98 24.3089 104.424 24.3089C109.846 24.3089 113.469 21.1236 113.469 16.3509V2.18182H108.856ZM122.477 2.18182H117.864V24H122.477V2.18182Z" fill="#8B5CF6"/>
</svg>
